<svg xmlns="http://www.w3.org/2000/svg" width="256" height="256"><path fill-opacity=".016" d="M0 128.004v128.004l128.25-.254 128.25-.254.254-127.75L257.008 0H0v128.004m.485.496c0 70.4.119 99.053.265 63.672.146-35.38.146-92.98 0-128C.604 29.153.485 58.1.485 128.5" fill="#1976D2" fill-rule="evenodd"/><path fill-opacity=".191" d="M110.66 15.979c-27.226 4.954-49.963 21.424-62.038 44.94-2.424 4.72-5.209 11.156-6.189 14.304-1.629 5.234-2.455 6.246-9.657 11.828-32.278 25.02-42.167 70.267-23.33 106.74 8.628 16.705 22.608 30.161 39.556 38.074 11.361 5.305 18.416 7.071 31.189 7.81 15.749.911 30.862-2.07 43.701-8.62l4.354-2.221 7.627 3.46c12.478 5.661 19.779 7.134 35.127 7.086 15.812-.049 24.665-2.028 37.512-8.388 23.988-11.876 43.329-37.772 46.152-61.793.405-3.444.926-4.874 1.467-4.021.474.747.802-4.331.754-11.678-.046-7.15-.406-11.875-.798-10.5-.59 2.065-.823 1.605-1.341-2.647-.919-7.537-5.262-19.789-10.052-28.353-5.665-10.13-21.458-25.982-31.385-31.502-6.782-3.771-7.309-4.319-9.266-9.646-9.245-25.155-30.354-44.705-56.543-52.367-9.933-2.906-27.916-4.129-36.84-2.506M96.5 94.5v7.5H105.879l.311-3.75c.234-2.827.741-3.729 2.06-3.667.963.046 15.033.159 31.268.25l29.519.167-.269 23.25-.268 23.25-3.25.313c-2.975.287-3.25.604-3.25 3.75V149h17V87H96.5v7.5m-20.5 18v7.5h10v-8.029l30.75.265 30.75.264.268 23.75.268 23.75h-3.518c-3.354 0-3.518.163-3.518 3.5v3.5h17v-62H76v7.5m-20.995 41.75L55 185h82v-62.244l-40.995.372-40.996.372-.004 30.75m9.995.25V178h62v-47H65v23.5m31.75-16.655L87 139.412V167h-2.845c-3.097 0-6.155 2.66-6.155 5.353 0 2.544 4.597 3.949 7.842 2.397 2.633-1.26 2.663-1.393 3.158-14.261l.5-12.989 8-1.582c4.4-.87 8.338-1.406 8.75-1.191 1.352.705.882 17.301-.5 17.668-6.521 1.733-7.259 2.221-7.58 5.015-.371 3.226 1.057 4.552 4.925 4.575 5.276.031 5.905-2.079 5.905-19.814 0-12.344-.296-16.138-1.25-16.032-.687.076-5.638.844-11 1.706M.389 154.5c.001 7.15.161 9.944.353 6.208.193-3.735.192-9.585-.003-13-.194-3.414-.352-.358-.35 6.792" fill="#1976D2" fill-rule="evenodd"/><path fill-opacity=".113" d="M72 69.693C36.677 75.63 7.654 104.368 1.534 139.467c-1.935 11.095-1.939 18.95-.014 29.985 3.235 18.556 11.571 33.737 26.049 47.442 7.22 6.834 10.478 9.068 19.787 13.564 15.269 7.376 22.078 8.967 38.144 8.915 15.895-.05 24.413-2.086 39.163-9.356 19.737-9.729 35.138-28.005 42.312-50.213 1.958-6.061 2.622-6.914 9.813-12.615 14.983-11.879 24.411-26.443 29.892-46.174 2.979-10.725 2.826-31.538-.31-42.282-1.267-4.34-20.38-9.06-36.37-8.982-12.882.063-22.555 2.111-34.629 7.331l-7.129 3.082-4.323-2.205c-5.903-3.012-14.084-5.775-22.234-7.509-6.252-1.33-23.639-1.774-29.685-.757m44.75 17.046L96 87.041v7.479c0 7.207.087 7.48 2.375 7.48 1.306 0 3.781.281 5.5.625 3.096.619 3.125.587 3.125-3.5V95h61V140.873l-3.25.314c-3.073.296-3.25.531-3.25 4.313v4h18v-63l-21-.031c-11.55-.017-30.338.105-41.75.27m-27.422 18.008l-13.172.31-.328 7.474-.328 7.474 5.25-.003L86 120v-7h61v46h-3c-2.893 0-3 .162-3 4.539v4.539l8.75-.289 8.75-.289.264-31.75.264-31.75-28.264.218c-15.545.12-34.191.358-41.436.529M55 154.5V186h83v-63H55v31.5m10.232-.25l.268 23.25 11.5-.083c6.325-.046 20.162-.158 30.75-.25L127 177v-46H64.963l.269 23.25m30.594-16.753c-4.221.71-8.158 1.59-8.75 1.956-.68.42-1.076 5.52-1.077 13.856V166.5l-2.521.146c-3.315.191-5.478 2.077-5.478 4.776 0 4.477 5.342 6.128 9.777 3.021 2.094-1.466 2.223-2.277 2.223-13.932 0-10.925.205-12.436 1.75-12.888 1.531-.447 13.087-2.623 13.934-2.623.174 0 .316 3.825.316 8.5 0 7.628-.191 8.5-1.865 8.5-2.657 0-7.135 3.797-7.135 6.05 0 2.716 4.191 5.191 7.417 4.381 4.988-1.251 5.583-3.453 5.583-20.654V136l-3.25.103c-1.787.056-6.703.683-10.924 1.394" fill="#1976D2" fill-rule="evenodd"/><path fill-opacity=".15" d="M73.315 69.939c-34.508 5.501-61.767 30.399-70.538 64.429-2.916 11.312-2.857 29.868.13 41.132 9.501 35.83 39.447 60.543 77.593 64.032 9.009.824 23.558-1.505 34.792-5.57 13.088-4.736 13.113-4.782 5.58-10.17-11.533-8.249-22.86-21.95-27.525-33.293l-1.847-4.492-18.764-.003L53.972 186l.264-31.25.264-31.25 18.5-.292 18.5-.291 2.186-4.959L95.873 113H86v8.105l-5.25-.303-5.25-.302v-16l14-.543c7.7-.299 12.313-.636 10.25-.75L96 103V87h11.11c10.834 0 11.235-.081 16.114-3.242l5.002-3.242-6.863-3.24c-13.392-6.323-34.341-9.522-48.048-7.337M107 96.059c0 .582.45.781 1 .441s1-.816 1-1.059-.45-.441-1-.441-1 .477-1 1.059M66 154v23h11c6.05 0 11-.395 11-.877 0-.483-1.981-.654-4.401-.381-3.78.426-4.567.187-5.571-1.69-1.57-2.933.982-6.904 4.945-7.697l2.883-.576.468-14.14c.257-7.776.79-15.602 1.185-17.389l.718-3.25H66v23" fill="#1976D2" fill-rule="evenodd"/></svg>