<svg xmlns="http://www.w3.org/2000/svg" width="256" height="256"><path fill-opacity=".016" d="M0 128.004v128.004l128.25-.254 128.25-.254.254-127.75L257.008 0H0v128.004m.485.496c0 70.4.119 99.053.265 63.672.146-35.38.146-92.98 0-128C.604 29.153.485 58.1.485 128.5" fill="#1976D2" fill-rule="evenodd"/><path fill-opacity=".183" d="M40.745 41.755L5 77.51v101.027l36.282 36.231L77.564 251H178.33l35.835-35.706L250 179.588V77.49l-35.755-35.745L178.49 6h-102L40.745 41.755M197.926 86.25c-.041.138-2.218 9.362-4.838 20.5L188.325 127H197.544l4.37-19.25c2.402-10.588 4.578-19.812 4.834-20.5.331-.887-.874-1.25-4.141-1.25-2.534 0-4.641.112-4.681.25M28.5 88.436C23.056 90.45 19 95.123 19 99.381c0 4.752 3.151 8.165 9.773 10.587C39.789 113.998 40 114.122 40 116.586c0 5.313-11.431 6.58-19.365 2.145-5.003-2.796-4.737-2.965-6.111 3.888-.604 3.011-.471 3.157 3.868 4.25 2.472.622 7.782 1.121 11.801 1.109C42.467 127.941 50 122.936 50 114.817c0-5.037-2.887-7.797-10.673-10.205-3.205-.991-6.84-2.444-8.077-3.23-2.761-1.753-2.92-4.953-.316-6.347 3.289-1.76 11.789-1.217 16.203 1.035 2.231 1.138 4.218 1.909 4.414 1.712.197-.196.65-2.187 1.008-4.423.807-5.048.101-5.413-11.559-5.985-5.938-.292-9.706.029-12.5 1.062m35.864 9.279c-2.583.325-3.245.942-3.757 3.5-.341 1.707-.475 3.25-.298 3.428.178.177 1.866-.12 3.751-.66 5.002-1.435 10.513-1.202 11.929.504 2.307 2.78.453 4.183-6.371 4.82C58.885 110.309 54 114.018 54 121.166c0 2.711.603 4.143 2.223 5.277 2.888 2.023 9.044 1.988 13.033-.075 2.182-1.129 3.272-1.283 3.533-.5.208.623 2.328 1.132 4.712 1.132h4.335l2.252-9.75c3.535-15.302 3.184-17.198-3.588-19.4-2.156-.701-11.048-.776-16.136-.135m46.386 1.353c-3.16 1.668-3.75 1.74-3.75.456 0-2.349-8.694-2.139-9.352.226-.267.963-1.669 6.925-3.115 13.25-1.446 6.325-2.819 12.063-3.05 12.75-.297.883.968 1.25 4.311 1.25h4.73l2.28-10.217c2.299-10.306 2.862-11.312 6.944-12.4 4.468-1.19 5.588.154 4.904 5.888-.343 2.876-1.27 7.84-2.06 11.031l-1.436 5.801 4.663-.301 4.664-.302 2.364-10.138c2.009-8.611 2.732-10.305 4.806-11.25 3.517-1.602 6.311-1.369 7.062.589.589 1.532-1.841 15.859-3.361 19.819-.52 1.355.131 1.553 4.245 1.29l4.86-.31 2.236-9.5c3.587-15.239 2.935-18.537-3.885-19.643-2.875-.467-4.736-.011-8.471 2.077-3.974 2.221-4.96 2.439-5.813 1.284-2.954-4.005-8.139-4.626-13.776-1.65m57.855.074c-3.238 1.708-3.791 1.785-3.281.456.509-1.328-.201-1.598-4.196-1.598h-4.81l-1.263 5.75c-.694 3.162-2.607 11.487-4.25 18.5L147.817 135H14v5h228v-5h-41.833c-23.009 0-42.08-.247-42.382-.548-.301-.302-.1-2.315.448-4.474.898-3.537 1.198-3.818 3.025-2.84 1.116.597 4.457.885 7.425.638 4.631-.384 5.963-1.001 9.4-4.357 7.125-6.958 8.778-18.649 3.396-24.031-2.977-2.977-7.53-3.064-12.874-.246m49.816-.246c-12.92 5.868-13.977 24.125-1.632 28.199 4.433 1.464 16.927.649 18.674-1.218 1.237-1.322 2.997-6.877 2.178-6.877-.218 0-2.012.675-3.987 1.5-7.417 3.099-16.654.563-16.654-4.573 0-1.79.81-1.927 11.383-1.927 10.96 0 11.406-.084 11.987-2.25 1.561-5.826-.228-11.108-4.515-13.325-3.839-1.985-12.543-1.75-17.434.471m-51.384 5.214c-1.355.541-2.645 1.165-2.867 1.387-.797.797-3.887 15.453-3.368 15.972 1.403 1.403 7.983.38 10.071-1.565 4.633-4.316 5.674-12.707 1.904-15.347-2.531-1.773-2.436-1.766-5.74-.447m53.137 1.204c-1.196 1.273-2.174 2.623-2.174 3 0 .378 3.15.686 7 .686 6.074 0 7-.238 7-1.8 0-4.659-8.019-5.937-11.826-1.886m-153.836 9.685c-2.288.922-3.89 4.299-2.844 5.992.741 1.198 7.462 1.324 9.274.173.698-.442 1.679-2.235 2.18-3.984.909-3.169.899-3.18-2.768-3.117-2.024.035-4.653.456-5.842.936m-26 39c-5.334 2.15-3.256 8.231 3.227 9.447 1.889.355 3.435 1.088 3.435 1.631 0 1.708-3.047 2.244-6.588 1.157-3.002-.921-3.412-.832-3.412.743 0 3.182 8.914 4.172 12.835 1.426 1.593-1.116 2.187-2.395 1.972-4.25-.256-2.211-1.102-2.892-5.079-4.086-5.72-1.717-5.646-3.642.13-3.378 2.878.132 4.142-.217 4.142-1.143 0-2.469-6.16-3.363-10.662-1.547m17.117 1.456c-2.956 2.955-3.285 8.308-.705 11.465 3.285 4.019 13.507 4.028 14.558.012.435-1.664.204-1.946-1.131-1.382C65.165 167.665 60 166.607 60 163.465c0-1.124 1.397-1.465 6-1.465 5.189 0 6-.252 6-1.865 0-1.026-.933-3.051-2.073-4.5-2.84-3.611-8.954-3.699-12.472-.18m50.18-.382c-2.126 1.672-2.635 2.913-2.635 6.427s.509 4.755 2.635 6.427c5.972 4.698 14.365.943 14.365-6.427 0-7.37-8.393-11.125-14.365-6.427m67.226-.161c-3.385 2.74-3.385 10.436 0 13.176 2.657 2.152 7.187 2.482 10.455.762 3.07-1.616 3.653-2.789 3.653-7.35s-.583-5.734-3.653-7.35c-3.268-1.72-7.798-1.39-10.455.762m56.77-1.21c-.386.386-2.261.597-4.166.469l-3.465-.234v7.532c0 6.8.189 7.531 1.95 7.531 1.673 0 1.993-.818 2.25-5.75.295-5.656.349-5.75 3.3-5.75 2.951 0 3.005.094 3.3 5.75.257 4.932.577 5.75 2.25 5.75 1.742 0 1.95-.725 1.95-6.8 0-3.956-.502-7.302-1.2-8-1.313-1.313-5.052-1.614-6.169-.498M17 160.8c0 3.956.502 7.302 1.2 8 1.42 1.42 6.433 1.603 7.259.266.318-.514 2.144-.68 4.059-.369l3.482.565v-7.631c0-7.432-.064-7.631-2.45-7.631-2.281 0-2.471.396-2.75 5.75-.271 5.198-.529 5.782-2.687 6.087-3.099.439-4.079-1.256-4.098-7.087-.013-4.078-.298-4.75-2.015-4.75-1.804 0-2 .667-2 6.8m68-5.938c0 .475 1.292 3.995 2.87 7.824 2.61 6.327 2.743 7.205 1.469 9.637-1.361 2.598-1.32 2.677 1.379 2.669 2.6-.008 3.054-.695 6.937-10.5 4.14-10.455 4.146-10.492 1.83-10.492-1.902 0-2.627.911-3.988 5.008-.914 2.754-2.014 4.791-2.443 4.526-.429-.266-1.35-2.519-2.047-5.008-1.046-3.738-1.679-4.526-3.637-4.526-1.303 0-2.37.388-2.37.862m41.015 4.388c.021 7.565 1.683 10.318 6.028 9.985 1.901-.146 4.92-.259 6.707-.251l3.25.015v-7.5c0-6.768-.19-7.499-1.95-7.499-1.673 0-1.993.818-2.25 5.75-.295 5.656-.349 5.75-3.3 5.75-2.951 0-3.005-.094-3.3-5.75-.279-5.354-.469-5.75-2.75-5.75-2.291 0-2.449.341-2.435 5.25M148 161.5c0 7.333.056 7.5 2.5 7.5 2.364 0 2.5-.3 2.5-5.5 0-5.444.03-5.5 3-5.5 2.333 0 3-.444 3-2 0-2.255-2.867-2.733-4.8-.8-.933.933-1.2.933-1.2 0 0-.66-1.125-1.2-2.5-1.2-2.444 0-2.5.167-2.5 7.5m45-6.927c0 .391.919 3.797 2.042 7.569 1.908 6.406 2.231 6.858 4.908 6.858 2.601 0 2.983-.462 4.147-5 .704-2.75 1.561-5 1.903-5 .342 0 1.199 2.25 1.903 5 1.164 4.538 1.546 5 4.147 5 2.677 0 3-.452 4.908-6.858 2.525-8.478 2.528-8.35-.208-7.962-1.811.258-2.429 1.246-3.168 5.07-.504 2.613-1.25 4.75-1.657 4.75-.407 0-1.322-2.271-2.034-5.047-1.15-4.488-1.565-5.014-3.744-4.75-1.984.241-2.718 1.22-3.86 5.153-1.589 5.474-2.328 5.344-3.831-.676-.785-3.144-1.59-4.259-3.25-4.5-1.213-.175-2.206.001-2.206.393m-131.75 2.089C58.504 157.77 60.007 160 63.5 160c2.325 0 3.5-.468 3.5-1.393 0-2.049-2.987-3.06-5.75-1.945m48.724 1.907c-1.989 5.23 1.925 10.419 5.574 7.391 1.756-1.457 1.918-7.094.252-8.76-2.016-2.016-4.787-1.365-5.826 1.369M178.2 157.2c-1.666 1.666-1.504 7.303.252 8.76 2.199 1.825 4.895.839 5.956-2.179 1.843-5.241-2.716-10.073-6.208-6.581" fill="#1976D2" fill-rule="evenodd"/><path fill-opacity=".385" d="M41.745 41.755L6 77.51v102.001l35.255 35.244L76.51 250h101.98l35.755-35.745L250 178.51V77.49l-35.755-35.745L178.49 6h-101L41.745 41.755m151.288 63.495c-2.406 10.588-4.575 20.037-4.82 21-.38 1.49.285 1.75 4.476 1.75h4.922l4.276-18.75a9739.763 9739.763 0 014.803-21c.491-2.099.198-2.25-4.378-2.25h-4.905l-4.374 19.25M27.245 88.493C21.87 90.829 19 94.673 19 99.535c0 5.974 2.256 8.207 11.434 11.321 9.021 3.06 10.939 4.97 8.119 8.085-2.771 3.062-10.653 2.81-17.408-.556-2.887-1.438-5.408-2.451-5.603-2.25-.195.201-.669 2.473-1.052 5.049l-.697 4.683 4.353 1.227c6.726 1.896 17.6 1.697 23.091-.422 6.004-2.316 8.763-6.07 8.763-11.921 0-5.674-1.688-7.226-11.699-10.76-9.097-3.211-10.927-5.192-7.44-8.054 3.192-2.619 10.261-2.54 15.875.177 2.403 1.163 4.545 1.938 4.761 1.722.217-.216.819-2.285 1.338-4.598l.945-4.205-3.64-1.011c-5.31-1.475-19.069-1.192-22.895.471M63.5 97.732c-2.535.633-3.465 2.078-3.485 5.408L60 105.781l4.916-1.441c5.515-1.617 11.385-.733 11.87 1.788.222 1.152-1.499 1.78-7.396 2.697-8.526 1.325-13.45 3.815-15.218 7.697-1.743 3.825-1.441 6.054 1.242 9.172 2.017 2.344 3.158 2.79 6.938 2.712 2.488-.052 5.661-.84 7.051-1.75 3.026-1.983 3.678-2.062 3.347-.406-.165.825 1.336 1.352 4.411 1.551l4.661.301 2.714-11.485c3.051-12.913 2.806-15.872-1.501-18.099-2.85-1.474-14.85-1.957-19.535-.786m46.75 1.257c-2.735 1.668-3.25 1.738-3.25.442 0-1.213-1.005-1.476-4.72-1.236l-4.72.305-2.704 11.5c-1.488 6.325-2.989 12.988-3.336 14.807l-.632 3.307 4.806-.307 4.806-.307 2.535-10.5c2.231-9.236 2.86-10.656 5.231-11.795 1.992-.958 3.223-1.014 4.715-.215 2.494 1.335 2.495 1.892.019 12.51-1.1 4.718-2 9.035-2 9.594 0 .587 1.984.887 4.701.711l4.7-.305 2.6-10.5c2.271-9.177 2.937-10.663 5.28-11.795 1.981-.958 3.208-1.014 4.7-.215 2.494 1.335 2.495 1.892.019 12.51-1.1 4.718-2 9.035-2 9.594 0 .587 1.994.887 4.732.711l4.733-.305 2.732-11.5c2.774-11.674 2.778-14.12.03-17.25-2.184-2.487-8.813-2.235-13.677.52l-3.951 2.238-2.254-2.254c-2.869-2.869-8.633-2.985-13.095-.265m58.5-.417c-1.593.864-2.75 1.058-2.75.46 0-.569-2.2-1.032-4.903-1.032h-4.904l-3.688 15.75c-2.029 8.662-3.921 16.759-4.204 17.993l-.514 2.243-67.144.257-67.143.257-.316 2.75-.317 2.75h230.266l-.317-2.75-.316-2.75-42.373-.261-42.373-.261.634-3.166c.348-1.741.766-3.299.929-3.462.162-.163 2.045.187 4.183.777 7.615 2.103 15.164-2.062 19.116-10.548 5.055-10.856 1.748-20.623-6.955-20.539-2.289.022-5.399.711-6.911 1.532m49.75-.155c-3.727 1.664-8.031 6.179-9.436 9.898-1.404 3.714-1.352 9.958.108 13.163 2.538 5.571 11.368 8.349 20.793 6.541 6.477-1.243 6.675-1.409 7.586-6.361l.706-3.842-3.378 1.78c-4.211 2.219-13.292 2.437-15.3.368-.782-.805-1.57-2.364-1.75-3.464-.31-1.884.305-2.017 10.634-2.286 7.228-.189 11.226-.7 11.735-1.5.424-.668.778-3.161.787-5.541.012-3.461-.57-4.912-2.908-7.25-2.671-2.671-3.513-2.92-9.75-2.884-3.755.022-8.177.642-9.827 1.378m2.689 6.622c-3.533 3.291-2.697 4.081 3.982 3.759 6.509-.314 7.997-1.488 5.302-4.182-2.226-2.227-6.657-2.025-9.284.423m-55.533.223c-1.573 1.151-4.534 10.755-4.62 14.988-.062 3.019 6.549 2.318 9.92-1.052 3.236-3.236 4.804-9.909 3.084-13.123-1.271-2.375-5.665-2.801-8.384-.813M67 115.294c-1.651.835-2.5 2.104-2.5 3.736 0 2.046.547 2.523 3.191 2.779C71.338 122.162 75 119.252 75 116c0-2.376-4.001-2.729-8-.706m-51 43.917c0 9.301 1.238 10.609 9.99 10.554l7.01-.044v-8.36c0-8.208-.045-8.361-2.452-8.361-2.31 0-2.47.363-2.75 6.25-.282 5.921-.43 6.25-2.798 6.25-2.333 0-2.533-.4-3-6-.472-5.658-.657-6.018-3.25-6.316-2.744-.316-2.75-.304-2.75 6.027m23.25-4.688c-2.456 1.736-2.987 5.621-.994 7.274.69.573 2.603 1.366 4.25 1.761 1.647.395 3.38.938 3.851 1.205 1.483.843-1.762 2.218-3.857 1.635-1.1-.306-2.824-.788-3.832-1.071-1.456-.408-1.764-.033-1.5 1.83.295 2.078.938 2.378 5.691 2.649 3.974.227 5.848-.136 7.25-1.405C53.2 165.604 52.037 160 48.365 160c-.679 0-2.502-.482-4.05-1.07-2.537-.965-2.637-1.17-1.012-2.08 1.226-.686 2.794-.663 4.899.071 4.054 1.413 3.988 1.434 3.618-1.171-.277-1.944-.999-2.289-5.32-2.534-3.347-.19-5.744.242-7.25 1.307m17.824.898c-1.541 1.64-2.274 3.645-2.274 6.216 0 5.202 3.657 8.363 9.674 8.363 5.688 0 7.526-.775 7.526-3.174 0-1.599-.415-1.816-2.25-1.176-3.394 1.185-7.853.8-8.824-.762-.694-1.115.311-1.447 5.105-1.686 5.877-.293 5.969-.343 5.969-3.25 0-4.345-3.122-6.952-8.326-6.952-3.283 0-4.873.583-6.6 2.421M84 153.206c0 .187 1.377 3.915 3.06 8.285 2.944 7.647 3.072 8.804 1.416 12.839-.64 1.558-.324 1.78 2.129 1.5 2.623-.301 3.254-1.225 7.062-10.33 2.3-5.5 4.216-10.562 4.257-11.25.042-.687-1.013-1.25-2.344-1.25-2.019 0-2.697.837-4.102 5.065-.925 2.785-1.966 4.781-2.313 4.433-.347-.347-1.324-2.513-2.171-4.814-1.229-3.34-2.09-4.248-4.267-4.5-1.5-.174-2.727-.164-2.727.022m23.025 1.769c-2.732 2.732-3.482 6.508-2.001 10.083 1.541 3.721 3.7 4.942 8.736 4.942 5.227 0 8.24-3.159 8.24-8.64 0-5.424-3.096-8.36-8.814-8.36-2.835 0-4.823.637-6.161 1.975M126 159.929c0 9.044.861 9.893 9.976 9.836l7.024-.044v-16.854l-2.75.317c-2.636.303-2.762.576-3.048 6.566-.276 5.805-.464 6.25-2.643 6.25-2.838 0-3.559-1.636-3.559-8.082 0-4.579-.172-4.918-2.5-4.918-2.426 0-2.5.205-2.5 6.929m22 1.571c0 8.354.042 8.5 2.45 8.5 2.281 0 2.471-.396 2.75-5.75.297-5.685.337-5.754 3.55-6.063 2.692-.26 3.25-.732 3.25-2.75 0-2.692-1.056-3.012-4.268-1.294-1.603.858-2.232.858-2.518 0-.209-.628-1.468-1.143-2.797-1.143-2.366 0-2.417.178-2.417 8.5m26.455-6.045c-3.094 3.093-3.26 8.252-.382 11.91 2.884 3.667 9.892 3.761 13.472.18C193.148 161.943 189.123 153 181 153c-3.01 0-4.739.648-6.545 2.455m17.827-1.162c.307.798 1.513 4.659 2.68 8.579 1.991 6.685 2.301 7.128 4.988 7.128 2.601 0 2.983-.462 4.147-5 .704-2.75 1.561-5 1.903-5 .342 0 1.199 2.25 1.903 5 1.164 4.54 1.546 5 4.149 5 2.669 0 3.011-.467 4.936-6.75 1.138-3.713 2.322-7.571 2.632-8.575.465-1.509.081-1.769-2.221-1.5-2.249.263-2.947.997-3.634 3.825-1.586 6.523-1.938 6.665-3.716 1.5-1.398-4.059-2.156-5-4.031-5-1.9 0-2.559.859-3.724 4.856-.779 2.67-1.623 4.648-1.876 4.395-.254-.253-1.031-2.438-1.728-4.856-1.072-3.72-1.704-4.446-4.116-4.725-2.158-.249-2.714.023-2.292 1.123m31.07.231c-.247.646-.316 4.28-.151 8.075.287 6.615.403 6.901 2.799 6.901 2.333 0 2.533-.4 3-6 .436-5.237.78-6.04 2.701-6.313 2.042-.291 2.222.14 2.5 6 .287 6.058.41 6.326 3.049 6.629l2.75.317v-6.995c0-9.078-.914-10.02-9.595-9.888-4.048.061-6.776.554-7.053 1.274m-161.623 2.568C59.492 158.394 60.41 160 63.392 160c2.954 0 3.869-.981 2.477-2.658-1.317-1.586-1.795-1.615-4.14-.25m49.471.108c-1.952 1.952-1.483 7.578.731 8.763 4.01 2.146 6.96-4.929 3.498-8.392-1.886-1.886-2.648-1.952-4.229-.371m68.227-.435c-2.869 1.965-2.638 8.556.341 9.699 3.569 1.37 6.067-5.548 3.235-8.961-1.394-1.679-2.014-1.807-3.576-.738" fill="#1976D2" fill-rule="evenodd"/><path fill-opacity=".437" d="M41.745 41.755L6 77.51v101l35.755 35.745L77.51 250h100.98l35.755-35.745L250 178.51V77.49l-35.755-35.745L178.49 6h-101L41.745 41.755m155.734 44.279C196.716 87.268 188 124.56 188 126.59c0 1.022 1.353 1.41 4.919 1.41h4.919l3.677-15.75c2.021-8.662 4.258-18.087 4.971-20.943.712-2.856 1.044-5.444.738-5.75-.988-.988-9.085-.591-9.745.477m-167.73 1.379c-7.754 2.086-12.469 7.936-11.322 14.049.857 4.566 4.102 7.157 12.577 10.039 7.953 2.705 9.383 3.907 7.914 6.652-2.129 3.978-13.732 3.252-20.062-1.255l-2.854-2.033-.852 2.318c-.469 1.274-1.127 3.75-1.463 5.502-.57 2.969-.359 3.274 3.101 4.493 5.993 2.112 20.922 1.718 25.699-.678 4.421-2.218 8.513-7.554 8.513-11.101 0-6.067-3.488-9.071-14.476-12.464-6.163-1.904-6.623-2.244-6.335-4.678.231-1.946 1.087-2.84 3.311-3.455 3.955-1.093 10.184-.083 14.376 2.334 1.857 1.07 3.584 1.737 3.839 1.482 1.05-1.049 2.304-8.999 1.541-9.762-1.114-1.114-10.663-2.872-15.142-2.789-1.988.038-5.752.643-8.365 1.346m35.95 9.495c-4.584.957-5.251 1.613-6.065 5.958-.588 3.139-.479 3.319 1.618 2.667 4.782-1.488 12.738-1.786 14.246-.534 2.572 2.134 1.715 2.703-5.129 3.404-3.647.374-8.071 1.281-9.832 2.017-8.273 3.457-10.321 13.572-3.465 17.117 3.628 1.877 7.661 1.851 11.35-.073 2.035-1.061 3.128-1.193 3.597-.433.384.621 2.763.957 5.526.78l4.852-.311 2.339-10c2.833-12.114 2.674-16.129-.736-18.647-2.883-2.129-12.517-3.153-18.301-1.945m47.6.178c-1.76.52-3.474 1.389-3.809 1.93-.966 1.564-2.487 1.14-1.852-.516.465-1.211-.396-1.5-4.472-1.5-2.776 0-5.269.357-5.539.794C96.966 98.865 91 124.769 91 126.572c0 1.044 1.323 1.428 4.917 1.428h4.916l2.493-10.635c1.371-5.849 3.096-11.017 3.833-11.485 1.827-1.157 6.586-1.102 7.32.086.483.781-2.416 15.781-4.016 20.784-.287.895 1.133 1.25 5.001 1.25h5.401l2.26-10.121c1.243-5.566 2.88-10.741 3.639-11.5 1.582-1.582 6.823-1.856 7.72-.404.503.813-2.17 14.102-4.078 20.275-.469 1.518.178 1.75 4.886 1.75h5.427l2.649-11.25c1.457-6.187 2.645-11.791 2.641-12.453-.024-3.298-2.563-6.383-6.135-7.453-3.384-1.014-4.369-.854-9.063 1.469-5.173 2.56-5.303 2.573-7.289.721-2.62-2.443-6.222-3.13-10.223-1.948m58.387-.069c-1.548.464-3.46 1.381-4.25 2.036-1.148.953-1.436.866-1.436-.431 0-1.278-1.052-1.622-4.961-1.622-5.756 0-4.67-2.364-10.216 22.247l-3.323 14.747-67.25.003L13 134v6h230v-6h-84.95l.619-3.25c.34-1.787.689-3.348.775-3.468.087-.119 1.771.278 3.743.883 10.785 3.31 21.736-6.731 21.791-19.981.026-6.337-1.049-8.652-4.958-10.674-3.231-1.671-4.218-1.729-8.334-.493m48.814.205c-10.068 3.569-16.05 15.589-11.797 23.707 2.742 5.232 6.171 7.215 13.427 7.764 9.331.707 14.008-1.115 15.638-6.091.702-2.141 1.035-4.132.741-4.426-.294-.294-2.119.221-4.055 1.145-4.828 2.302-12.652 2.223-14.799-.15-3.24-3.58-2.115-4.094 9.592-4.388l11.248-.283.865-4.111c1.233-5.858-1.214-10.713-6.457-12.811-4.466-1.787-9.983-1.923-14.403-.356m2.965 6.73c-1.119.453-2.636 1.55-3.372 2.436-1.206 1.453-.733 1.612 4.785 1.612 4.71 0 6.122-.338 6.122-1.465 0-.805-.87-1.93-1.934-2.5-2.237-1.197-2.832-1.206-5.601-.083m-57.034 1.012c-1.509.611-2.407 2.419-3.321 6.687-.689 3.217-1.464 6.6-1.723 7.518-.656 2.329 3.047 3.308 6.734 1.781 3.484-1.443 5.888-5.568 6.07-10.414.211-5.62-2.62-7.652-7.76-5.572m-97.018 9.979c-1.698.406-3.611 1.061-4.25 1.456-1.724 1.066-1.409 4.293.49 5.021 2.257.866 8.347-1.261 8.347-2.916 0-.737.273-2.052.607-2.922.661-1.723-.212-1.83-5.194-.639M42 152.709c-2.825 1.039-5 3.601-5 5.889 0 2.65 3.424 5.402 6.723 5.402 1.252 0 2.277.45 2.277 1 0 1.309-4.597 1.286-7.066-.035-1.709-.915-1.934-.692-1.934 1.912 0 2.643.4 3.015 3.873 3.602 10.581 1.787 17.079-9.084 6.604-11.049-5.519-1.036-5.635-2.861-.133-2.106 4.206.576 4.656.444 4.656-1.368 0-2.961-5.722-4.819-10-3.247m17.476.648c-2.926 1.312-5.476 5.15-5.476 8.24 0 .826.678 2.813 1.506 4.414 3.143 6.078 15.631 6.562 16.318.633.292-2.52.127-2.688-1.685-1.719-2.888 1.546-7.688 1.323-9.139-.425-1.084-1.306-.451-1.5 4.878-1.5H72v-3.345c0-5.83-6.397-9.047-12.524-6.298m49.881-.412c-7.7 3.275-6.597 15.745 1.552 17.535 4.133.908 9.861-1.745 11.164-5.171 1.347-3.544.428-8.545-1.969-10.714-2.253-2.04-7.821-2.894-10.747-1.65m66.462.542c-4.813 2.701-5.536 10.25-1.381 14.405 3.465 3.466 9.41 3.539 13.006.161 3.489-3.278 3.589-9.734.199-12.918-3.037-2.854-8.357-3.595-11.824-1.648m55.82-.793c-.381.382-2.481.588-4.666.459l-3.973-.234V170h2.952c2.923 0 2.956-.062 3.25-6.25.262-5.484.543-6.25 2.298-6.25s2.036.766 2.298 6.25c.294 6.188.327 6.25 3.25 6.25H240v-7.443c0-6.558-.264-7.629-2.223-9-2.351-1.647-4.983-2.017-6.138-.863M16 160c0 5.776.367 7.367 2.098 9.098 1.543 1.543 2.799 1.927 4.75 1.453 1.459-.355 4.34-.606 6.402-.558l3.75.088V153h-2.952c-2.923 0-2.956.062-3.25 6.25-.262 5.484-.543 6.25-2.298 6.25s-2.036-.766-2.298-6.25c-.294-6.188-.327-6.25-3.25-6.25H16v7m68-6.227c0 .425 1.35 4.279 3 8.565 2.261 5.87 2.754 8.253 2 9.661-1.626 3.039-1.172 4.001 1.89 4.001 2.735 0 3.124-.574 7.25-10.703 2.398-5.886 4.521-11.093 4.717-11.571.197-.478-1.119-.724-2.923-.547-2.883.282-3.454.845-4.719 4.659-1.581 4.761-2.368 4.555-4.172-1.088-1.024-3.205-1.623-3.75-4.121-3.75-1.607 0-2.922.348-2.922.773m42 6.704c0 6.866.204 7.61 2.493 9.11 1.728 1.133 3.338 1.402 5.25.879 1.516-.415 4.22-.655 6.007-.534l3.25.221V153h-3c-2.994 0-3 .012-3 5.893 0 4.464-.386 6.041-1.59 6.503-2.705 1.038-3.41-.296-3.41-6.455 0-5.934-.003-5.941-3-5.941h-3v7.477m22 1.08V170h3c2.962 0 3-.067 3-5.393 0-5.562 1.248-7.217 4.5-5.969 1.126.432 1.5-.164 1.5-2.389 0-2.949-.035-2.966-6-3.051l-6-.085v8.444m44.534-5.403c.381 1.735 1.469 5.448 2.418 8.25 1.538 4.542 2.069 5.13 4.874 5.408 2.971.295 3.217.056 4.369-4.25.671-2.509 1.483-4.562 1.805-4.562.322 0 1.134 2.053 1.805 4.562 1.152 4.306 1.398 4.545 4.369 4.25 2.805-.278 3.336-.866 4.874-5.408.949-2.802 2.037-6.515 2.418-8.25.656-2.985.534-3.154-2.268-3.154-2.688 0-3.077.438-4.226 4.75l-1.265 4.75-1.412-4.75c-1.25-4.207-1.733-4.75-4.225-4.75-2.542 0-2.955.508-4.278 5.25l-1.465 5.25-1.263-5.25c-1.173-4.876-1.476-5.25-4.243-5.25-2.823 0-2.943.166-2.287 3.154M61 158c0 .55 1.125 1 2.5 1s2.5-.45 2.5-1-1.125-1-2.5-1-2.5.45-2.5 1m49.429 1.428c-.864 3.441.376 6.572 2.603 6.572 2.688 0 4.202-3.255 2.993-6.435-1.282-3.371-4.763-3.457-5.596-.137m67.992-1.083c-.314.818-.424 2.762-.246 4.321.26 2.27.823 2.834 2.825 2.834 2.25 0 2.5-.4 2.5-4 0-3.389-.344-4.049-2.254-4.32-1.308-.186-2.494.303-2.825 1.165" fill="#1976D2" fill-rule="evenodd"/></svg>