<svg xmlns="http://www.w3.org/2000/svg" width="256" height="256"><path fill-opacity=".016" d="M0 128.004v128.004l128.25-.254 128.25-.254.254-127.75L257.008 0H0v128.004m.485.496c0 70.4.119 99.053.265 63.672.146-35.38.146-92.98 0-128C.604 29.153.485 58.1.485 128.5" fill="#1976D2" fill-rule="evenodd"/><path fill-opacity=".191" d="M113.302 16.061c-23.98 3.121-46.19 16.63-59.453 36.161-4.817 7.094-10.243 18.486-11.857 24.895-.85 3.377-1.94 5.012-4.251 6.377-5.682 3.356-18.993 16.906-23.79 24.216C4.491 122.126 0 137.315 0 154.892c0 23.305 8.428 43.613 24.962 60.146C41.719 231.796 61.76 240 85.937 240c12.651 0 26.05-2.946 35.81-7.873l6.092-3.075 6.504 2.95c23.852 10.814 52.186 10.433 74.676-1.005 15.962-8.118 29.86-22.016 37.978-37.978 3.378-6.641 6.954-17.752 7.667-23.82.405-3.444.926-4.874 1.467-4.021.475.75.815-4.088.783-11.178-.03-6.875-.376-11.684-.77-10.686-.48 1.218-1.12-.55-1.949-5.382-4.01-23.385-22.269-47.911-43.707-58.709-3.533-1.779-4.402-2.975-7.279-10.012-11.998-29.344-37.916-49.257-69.183-53.155-9.392-1.17-11.702-1.17-20.724.005M.385 155c0 6.875.16 9.688.355 6.25.196-3.437.196-9.062 0-12.5-.195-3.437-.355-.625-.355 6.25" fill="#1976D2" fill-rule="evenodd"/><path fill-opacity=".232" d="M141.16 64c-1.145 2.475-3.354 5.943-4.908 7.707-2.796 3.173-2.873 3.194-7.196 1.917-3.077-.908-3.879-1.478-2.713-1.925 1.924-.739 2.206-4.75.457-6.499-1.658-1.658-5.303-1.504-6.789.287-1.455 1.753-.545 6.495 1.258 6.552.677.022-.201.662-1.95 1.423-4.447 1.934-11.647-.264-15.462-4.719-1.526-1.784-2.794-2.828-2.816-2.322-.023.507.744 1.788 1.702 2.848 1.703 1.881 1.638 1.912-2.75 1.304-4.182-.58-13.511-1.415-17.024-1.525-.842-.026-2.04-1.398-2.663-3.048-1.914-5.071-7.632-3.808-8.46 1.869-.298 2.042-1.383 2.632-7.846 4.264-29.445 7.435-52.958 31.166-61.209 61.774-2.954 10.959-2.92 30.551.073 41.593 8.454 31.195 31.532 53.907 63.136 62.137 9.774 2.546 30.069 2.281 40.5-.528 7.417-1.998 20.5-7.402 20.5-8.469 0-.255-2.812-2.489-6.25-4.964-3.437-2.475-8.57-6.902-11.405-9.838-5.657-5.859-13.345-16.459-13.345-18.4 0-.677 1.575-2.614 3.5-4.304l3.5-3.073v-73.712l-2.499-2.348c-2.26-2.123-2.353-2.508-.974-4.03.906-1.002 2.466-1.504 3.85-1.239 2.215.423 2.409 1.157 4.011 15.106 2.109 18.381 5.183 44.056 7.124 59.504.819 6.513 1.488 12.25 1.488 12.75 0 1.469 16.997 1.136 17.426-.342.2-.687 1.102-7.775 2.003-15.75a5648.369 5648.369 0 017.099-59.466c.828-6.582 1.917-12.379 2.421-12.883.504-.504 1.722-.608 2.706-.23 1.303.5 1.454.894.556 1.448-.953.589-1.173 10.621-.972 44.197l.261 43.434 14.75.277 14.75.276V185h-17v-28.912l7.25-.294 7.25-.294v-10l-7.25-.294-7.25-.294v-13.956c0-7.676.338-13.903.75-13.838.412.066 4.238.066 8.5 0L177 117l.036-5.25c.028-4.062.592-5.929 2.495-8.25l2.459-3 .005 47.25L182 195h13v-18.5c0-17.179.129-18.5 1.808-18.5 1.552 0 2.295 2.582 5.25 18.25l3.442 18.25 5.75.3c4.196.219 5.757-.052 5.775-1 .014-.715-1.429-9.283-3.205-19.041l-3.23-17.741 3.205-3.306 3.205-3.307V114.406l-3.792-3.703-3.792-3.703-9.458-.039-9.458-.039-3.293-4.477c-3.106-4.221-3.277-4.888-3-11.704.291-7.167.318-7.232 3.293-7.744 4.247-.731 4.037-3.544-.25-3.35-3.229.147-4.392-1.012-2-1.992.802-.329-.004-1.603-2.25-3.557-4.028-3.504-4.57-3.661-5.374-1.566-.391 1.018.244 1.848 1.893 2.475 3.313 1.26 3.427 4.993.153 4.993-1.972 0-2.504-.762-3.477-4.978-.632-2.737-.88-5.679-.551-6.537.733-1.909-2.316-5.485-4.677-5.485-1.876 0-3.612 1.666-4.135 3.97-.183.804-2.019 2.243-4.082 3.197-2.062.955-3.75 2.326-3.75 3.047 0 .721-1.012 1.756-2.25 2.299-1.81.794-2.31 1.93-2.558 5.815-.37 5.802 1.096 8.004 4.952 7.438 2.339-.344 2.808-.015 3.09 2.164.183 1.414-.856 5.045-2.31 8.07-1.453 3.025-2.443 6.063-2.2 6.75.292.825-.603 1.25-2.633 1.25-6.762 0-11.258-8.845-5.591-11 2.6-.988 3.22-2.437 1.5-3.5-.55-.34-1-1.641-1-2.892 0-3.367-.614-3.541-6.307-1.794-6.497 1.995-6.241 1.763-4.913 4.438.614 1.236 1.271 3.148 1.459 4.248.238 1.389 1.018 1.927 2.552 1.762 1.834-.198 2.209.263 2.209 2.715 0 4.277-3.048 5.665-5.862 2.67-3.115-3.316-3.107-14.042.013-16.568 1.644-1.332 1.993-2.37 1.481-4.41-.888-3.537-5.289-3.643-8.986-.217L129 84.905v-3.498c0-3.4.091-3.481 3.25-2.911 2.867.518 3.515.192 5.5-2.767 1.238-1.844 2.25-3.905 2.25-4.581 0-.675.926-3.043 2.058-5.263 1.133-2.219 1.862-4.563 1.621-5.21-.241-.646-1.374.85-2.519 3.325m25.173 17.5c0 .825.375 1.5.834 1.5.458 0 .833-.675.833-1.5s-.375-1.5-.833-1.5c-.459 0-.834.675-.834 1.5m6.682 3.25c.013 1.507.703 4.856 3.515 17.042.527 2.284.537 2.281 3-.645 2.017-2.398 2.47-4.019 2.47-8.849 0-5.896-.011-5.918-3.836-7.606-4.782-2.109-5.167-2.105-5.149.058M133.71 91c.288 1.1.696 2 .907 2 .21 0 .383-.9.383-2s-.408-2-.906-2c-.499 0-.671.9-.384 2m34.373 1.779c-.046 1.253-1.439 4.965-3.097 8.25L161.971 107h5.034c4.708 0 4.999-.145 4.508-2.25-2.797-11.992-3.357-13.947-3.43-11.971m-45.838.803c-1.567 1.679-.301 4.874 2.005 5.057.963.076 1.75-.224 1.75-.668 0-.444.23-1.408.512-2.141.78-2.033-2.737-3.885-4.267-2.248m-10.636 4.4c.085 2.952.839 4.447 3.403 6.737l3.294 2.944 3.233 31.918c1.777 17.556 3.33 31.694 3.449 31.419.978-2.254 6.502-63.629 5.771-64.111-.51-.336.235-1.526 1.657-2.644 1.421-1.118 2.566-2.868 2.544-3.889-.032-1.472-.335-1.314-1.463.763-.783 1.44-3.079 3.404-5.104 4.365-3.076 1.46-4.306 1.559-7.487.606-4.075-1.221-7.906-5.55-7.906-8.935 0-1.12-.338-2.246-.75-2.502-.412-.255-.701 1.243-.641 3.329m-6.362 2.143c-2.513 2.8-2.968 3.861-2 4.663 2.069 1.715 5.952-2.122 5.569-5.502L108.5 96.5l-3.253 3.625M184 103.833c0 2.766.338 3.167 2.674 3.167h2.675l-2.425-2.75c-1.333-1.513-2.537-2.937-2.674-3.167-.137-.229-.25 1.009-.25 2.75m-76 1.667c-1.069 1.288-.715 1.5 2.5 1.5s3.569-.212 2.5-1.5c-.685-.825-1.81-1.5-2.5-1.5s-1.815.675-2.5 1.5m26 0c-1.07 1.289-.708 1.5 2.569 1.5 3.568 0 3.688-.095 1.872-1.468-2.463-1.863-2.919-1.866-4.441-.032m61 27v15.615l4.25-.308 4.25-.307v-30l-4.25-.307-4.25-.308V132.5m-107.498 4.854c-2.054 9.788-1.644 29.505.804 38.646 1.405 5.248 1.478 4.298 1.583-20.75.061-14.437-.057-26.25-.262-26.25-.204 0-1.161 3.759-2.125 8.354" fill="#1976D2" fill-rule="evenodd"/><path fill-opacity=".82" d="M73.499 64.644c-1.004 1.004-1.427 2.508-1.086 3.865.307 1.222-.153 4.307-1.022 6.856C70.129 79.069 69.352 80 67.523 80c-3.324 0-3.936-3.441-.902-5.065 2.266-1.213 3.227-2.941 1.629-2.93-1.34.009-6.789 4.922-5.5 4.959.688.02 1.25.711 1.25 1.536 0 1.043-1.049 1.5-3.441 1.5-1.893 0-3.69.403-3.994.895-.742 1.201 2.283 2.288 4.452 1.6 2.154-.684 2.95 1.881 2.969 9.558.012 4.604-.517 6.313-3.092 10-2.986 4.276-2.996 4.322-.25 1.188C63.933 99.488 65.493 99.183 67 102c.589 1.1 2.182 2.728 3.54 3.618 3.537 2.318 4.887.721 6.466-7.651.733-3.882 1.754-7.319 2.27-7.638.545-.336.656.311.264 1.545-.462 1.455.414 4.175 2.777 8.625L85.769 107h-5.181c-4.681 0-5.54.367-8.885 3.792L68 114.584v73.01l3.792 3.703L75.584 195h9.314c8.897 0 9.489-.138 13.208-3.084l3.894-3.084v-75.155l-3.75-3.338c-2.711-2.413-4.706-3.338-7.2-3.338-2.587-.001-3.164-.287-2.308-1.143.857-.857.431-2.553-1.703-6.781-3.419-6.773-3.228-11.414.432-10.495 3.387.85 5.529-1.939 5.529-7.202 0-4.032-.299-4.602-3.017-5.745-1.659-.698-2.672-1.613-2.251-2.033C88.825 72.509 85.047 70 82.309 70 80.522 70 80 69.443 80 67.535c0-1.413-.825-2.906-1.934-3.5-2.512-1.344-2.63-1.328-4.567.609m95.251-.564c-.963.561-1.75 2.092-1.75 3.403 0 1.857-.608 2.454-2.75 2.701-1.623.186-3.125 1.17-3.666 2.4-.503 1.147-1.847 2.497-2.986 3-2.787 1.233-4.248 5.662-3.023 9.166.74 2.117 1.705 2.822 4.19 3.063 4.749.461 5.251 3.831 1.68 11.301-2.056 4.303-2.524 6.207-1.721 7.01 1.66 1.66 3.022.323 6.316-6.203 2.167-4.293 2.816-6.692 2.348-8.677-.441-1.874-.32-2.427.384-1.744.567.55 1.796 4.489 2.731 8.754 1.778 8.11 2.367 9.117 4.788 8.188 1.265-.486 1.142-2.069-.873-11.254-1.29-5.878-2.362-10.977-2.382-11.331-.096-1.713 3.324-1.577 6.429.255 3.565 2.103 5.535 1.864 5.535-.671 0-.793.675-1.441 1.5-1.441s1.5-.354 1.5-.786c0-.432-.9-.785-2-.785s-2 .443-2 .985-.54.446-1.2-.214c-.66-.66-1.993-1.2-2.961-1.2-2.089 0-4.391-6.769-3.971-11.677.2-2.334-.26-3.463-1.732-4.25-2.38-1.274-2.186-1.274-4.386.007m-48.118 2.035c-2.765 3.947 1.275 8.039 5.213 5.281 2.553-1.788 2.741-3.667.584-5.825-2.149-2.148-4.036-1.971-5.797.544m-14.295 7.46c4.056 5.72 8.048 8.18 10.275 6.332 1.124-.933 1.388-.653 1.388 1.471 0 3.03-.18 3.09-3.8 1.249-6.011-3.057-6.913-2.969-7.609.742-.774 4.121-2.561 5.894-4.625 4.589-2.565-1.623-4.729-1.037-5.353 1.449-.333 1.324-.877 3.118-1.21 3.986-.604 1.573 1.409 2.769 7.043 4.183 2.02.507 2.458.139 3.051-2.563.491-2.236 1.126-2.988 2.18-2.584.817.314 1.675.571 1.905.571.23 0 .418 1.888.418 4.195 0 3.186-.661 4.914-2.75 7.181l-2.75 2.986 2.979-2.086 2.98-2.086 3.02 2.076 3.021 2.075-2.75-2.975c-1.813-1.962-2.75-4.071-2.75-6.191 0-3.118 3.71-10.259 6.095-11.734.647-.399.113.712-1.187 2.469-3.653 4.941-3.261 10.491 1.008 14.306 2.982 2.664 3.898 2.952 7.944 2.496 6.049-.682 9.14-4.104 9.14-10.122 0-4.818-3.09-9.136-7.165-10.011-5.517-1.184-6.073-1.489-2.085-1.14l4.25.371v-3.88c0-3.752.085-3.848 2.565-2.905 1.411.536 2.745.975 2.964.975.593 0 5.471-7.34 5.471-8.232 0-1.576-2.274-.689-4.063 1.585-1.721 2.188-2.376 2.318-9.371 1.87-5.908-.38-8.061-.129-10.043 1.17-2.352 1.541-2.71 1.537-5.273-.052-1.513-.938-4.046-2.861-5.631-4.273-2.689-2.397-2.641-2.231.718 2.507M178 73c0 .55.62 1 1.378 1 .757 0 1.937.675 2.622 1.5.685.825 1.752 1.484 2.372 1.464 1.207-.038-4.362-4.951-5.622-4.959-.412-.003-.75.445-.75.995m-15 1.059c0 .582.45.781 1 .441s1-.816 1-1.059-.45-.441-1-.441-1 .477-1 1.059M172.5 80c.34.55.816 1 1.059 1s.441-.45.441-1-.477-1-1.059-1-.781.45-.441 1M79 81.5c0 .825.45 1.5 1 1.5s1-.675 1-1.5-.45-1.5-1-1.5-1 .675-1 1.5m57.813-.817c.721.289 1.584.253 1.916-.079.332-.332-.258-.568-1.312-.525-1.165.048-1.402.285-.604.604M166 82c0 1.289.506 1.998 1.25 1.75.688-.229 1.25-1.017 1.25-1.75 0-.733-.562-1.521-1.25-1.75-.744-.248-1.25.461-1.25 1.75m22.5-1c-.34.55.11 1 1 1s1.34-.45 1-1c-.34-.55-.79-1-1-1-.21 0-.66.45-1 1m-57.043 2.047c-1.69 1.868-1.688 2.04.043 3.953 2.419 2.673 4.663 2.52 7.512-.513 2.664-2.835 2.06-3.929-2.65-4.807-2.351-.439-3.581-.096-4.905 1.367m.415.703c-1.269 1.619-1.222 1.64.628.283 1.1-.807 2.188-1.594 2.417-1.75.229-.156-.054-.283-.628-.283s-1.662.787-2.417 1.75m-63.622.995C65.135 86.296 65 86.607 65 92.248c0 4.86.473 6.505 2.713 9.443l2.714 3.557 1.719-7.858c3.143-14.364 3.145-14.397 1.149-14.326-.987.035-3.258.792-5.045 1.681m74.75 3.67c-3.736 1.348-3.746 1.375-2.54 6.335.916 3.768.77 3.732 6.803 1.676l4.62-1.574-1.871-3.33c-1.029-1.832-1.602-3.599-1.274-3.926.961-.961-1.96-.544-5.738.819m-20.308 3.945c-.346.902-1.408 1.64-2.361 1.64-1.346 0-1.464.267-.531 1.2.66.66 1.2 1.898 1.2 2.75 0 1.057.958 1.55 3.011 1.55 1.956 0 2.847-.427 2.544-1.218-.257-.67-.037-1.484.489-1.809 1.323-.818 1.201-2.473-.184-2.473-.627 0-1.679-.738-2.339-1.64-1.112-1.521-1.245-1.521-1.829 0m-23.556 8.421c-.078 1.895-.77 3.525-1.636 3.857-.825.317-1.5 1.048-1.5 1.624 0 .576.813.312 1.806-.587 1.672-1.513 1.988-1.512 4.25.015l2.444 1.649-2.162-2.419c-1.19-1.331-2.366-3.545-2.614-4.92-.376-2.081-.474-1.95-.588.781m47.014-.391c-.083 1.589-.937 3.526-1.9 4.305-1.588 1.284-1.547 1.317.439.357 1.453-.701 2.398-.72 2.809-.055.341.552 1.129 1.003 1.752 1.003s.399-.562-.497-1.25c-.896-.687-1.814-2.6-2.041-4.25l-.412-3-.15 2.89M182 99c0 .55.45 1 1 1s1-.45 1-1-.45-1-1-1-1 .45-1 1m-117.805 4.5c.02 1.65.244 2.204.498 1.231.254-.973.237-2.323-.037-3-.274-.677-.481.119-.461 1.769m114.677-.75c-1.243 1.586-1.208 1.621.378.378.963-.755 1.75-1.543 1.75-1.75 0-.823-.821-.294-2.128 1.372m-45.948 1.938l-2.424 2.688 2.912-2.21 2.913-2.209 2.337 2.196c1.286 1.207 2.338 1.852 2.338 1.432 0-.813-4.107-4.496-5.076-4.552-.316-.018-1.666 1.177-3 2.655m-99.221 6.104L30 114.584v73.01l3.792 3.703C37.564 194.98 37.63 195 46.089 195h8.505l3.703-3.792L62 187.416V167.9l-5.75.3-5.75.3-.5 8-.5 8h-7v-67h7l.29 8.25.291 8.25H62v-19.594l-3.792-3.703C54.436 107.02 54.37 107 45.911 107h-8.505l-3.703 3.792M183 150.782v43.782l5.5.125 5.5.125V157h2.429c2.689 0 2.333-1.183 6.61 22 2.962 16.051 2.826 15.805 8.639 15.638 5.762-.165 5.674 1.463 1.192-22.008l-3.03-15.87 3.08-3.177 3.08-3.178V114.406l-3.792-3.703-3.792-3.703H183v43.782m-76.432-41.032c.21.963 2.436 19.525 4.948 41.25 2.511 21.725 4.781 40.512 5.044 41.75.444 2.091 1.008 2.25 7.99 2.25 5.104 0 7.657-.401 7.962-1.25.246-.687 2.471-18.35 4.944-39.25s4.759-39.912 5.081-42.25l.586-4.25h-5.562c-5.088 0-5.564.191-5.602 2.25-.089 4.854-6.517 66.641-6.981 67.106-.272.272-2.027-15.222-3.9-34.431L117.673 108h-5.743c-4.948 0-5.69.242-5.362 1.75m41.671 41.5l.261 43.25h27.81l.001-4.5.002-4.5-8.157-.29-8.156-.291V155h14v-9h-14v-29h16v-9h-28.021l.26 43.25m-67.131-32.881c-.809.976-1.06 10.689-.872 33.75L80.5 184.5l3.82.315c6.863.565 6.68 1.487 6.68-33.737 0-23.305-.317-31.995-1.2-32.878-1.63-1.63-7.29-1.52-8.692.169M194 133v16h3.566c7.235 0 7.434-.424 7.434-15.835 0-9.373-.383-14.148-1.2-14.965-.66-.66-3.135-1.2-5.5-1.2H194v16" fill="#1976D2" fill-rule="evenodd"/></svg>