<svg xmlns="http://www.w3.org/2000/svg" viewBox="0 0 450 616.23"><g id="Calque_2" data-name="Calque 2"><g id="Calque_1-2" data-name="Calque 1"><circle cx="218" cy="150" r="150" style="fill:#97dbfb"/><g style="opacity:0.8"><circle cx="150" cy="245" r="150" style="fill:#f76947"/></g><g style="opacity:0.8"><circle cx="300" cy="245" r="150" style="fill:#ffb64f"/></g><text transform="translate(49.16 582.55) scale(1.04 1)" style="font-size:201.61839294433594px;fill:#1e1e1e;font-family:Abolition-Regular, Abolition">C<tspan x="64.52" y="0" style="letter-spacing:-0.005995654746540558em">O</tspan><tspan x="133.27" y="0">VER</tspan></text><text/><g style="opacity:0.89"><polygon points="132.87 184.85 151.22 184.85 151.22 171.5 259.97 171.5 259.97 253.57 248.17 253.57 248.17 267.42 278.34 267.42 278.34 157.65 132.87 157.65 132.87 184.85" style="fill:#fff"/><polygon points="169 126 169 153.19 187.37 153.19 187.37 139.87 296.13 139.87 296.13 221.92 284.33 221.92 284.33 235.77 314.49 235.77 314.49 126 169 126" style="fill:#fff"/><path d="M96.27,299.57H241.75V189.79H96.27Zm18.35-95.92H223.38v82.06H114.62Z" style="fill:#fff"/><path d="M152.17,266.72a12.57,12.57,0,0,0-7.15-.23c-5.68,1.42-9.41,6.11-8.3,10.46.61,4,6.56,6.75,12.24,5.32,5-1.23,8.48-5,8.5-8.87h0l.14-40.69,29.33-5.37v32.71a12.74,12.74,0,0,0-7.28-.24c-5.73,1.44-9.48,6.16-8.38,10.56s6.64,6.81,12.38,5.39c5.22-1.33,8.57-4.92,8.57-9.4V212.05l-40.06,6.5v48.17Z" style="fill:#fff"/></g></g></g></svg>